<?xml version="1.0" encoding="utf-8"?>
<!-- Generator: Adobe Illustrator 27.5.0, SVG Export Plug-In . SVG Version: 6.00 Build 0)  -->
<svg version="1.1" id="Layer_1" xmlns="http://www.w3.org/2000/svg" xmlns:xlink="http://www.w3.org/1999/xlink" x="0px" y="0px"
	 viewBox="0 0 288 288" style="enable-background:new 0 0 288 288;" xml:space="preserve">
<style type="text/css">
	.st0{fill:url(#SVGID_1_);}
	.st1{fill:url(#SVGID_00000121245352353104862320000005272189292238578623_);}
	.st2{fill:#8C489A;}
	.st3{fill:#702A81;}
	.st4{fill:#6C2B89;}
	.st5{font-family:'nagayama_kai-90ms-RKSJ-H';}
	.st6{font-size:17.928px;}
	.st7{font-family:'BodoniMT';}
	.st8{font-size:35.7607px;}
</style>
<g>
	<g>
		
			<radialGradient id="SVGID_1_" cx="149.6645" cy="827.326" r="46.7694" gradientTransform="matrix(1 0 0 -1 0 904.024)" gradientUnits="userSpaceOnUse">
			<stop  offset="4.101831e-03" style="stop-color:#8C489A"/>
			<stop  offset="1" style="stop-color:#702A81"/>
		</radialGradient>
		<path class="st0" d="M172.4,54c3.1-2.9,6.9-4.4,11.2-3.3c3.6,0.9,6.8,3.1,9.1,5.9c2.7,3.5,2.7,7.4,3.5,11.5c0.5,2.6-0.2,5-1.8,7.1
			c-0.1,0.2-0.3,0.3-0.5,0.5c-1.6,1.2-5,0.5-6.9,0.9c-2.7,0.5-5.3,1.5-7.7,2.7c-1.3,0.6-2.7,1.3-3.9,1.9c4.1-1.4,13.3-3.9,17.6-3.1
			c1,0.2,2.1,0.4,3.2,0.6c0.2,0,0.3,0.1,0.5,0.2c0.2,0.1,0.3,0.3,0.5,0.6c0.6,1.2,0.8,2.7,0.9,4c0.1,1-0.3,3-1.3,3.3
			c-1.7,0.6-4.3-0.5-6.1-0.6c-3.3-0.2-6.6-0.1-9.9,0.1c-4,0.3-7.8,1.2-11.7,2c-3.2,0.7-7.3,2.3-10.6,1.8c-1.6-0.2-4-1-4.8-2.4
			c3.3,0.5,7.4-0.3,10.4-0.9c3.8-0.8,5.6-2.6,8.3-4.3c-2.4,1.1-4.9,2.1-7.6,2.9c-2.1,0.6-7.6,2-8.3,1.9c-1.3-0.1-3.2,0.3-4.3-0.6
			c-0.2-0.1-0.3-0.3-0.4-0.4c8.3-1.8,16.4-5.5,22.8-11c-7.1,4.1-15,8.5-23.3,10c-0.1-0.3-0.1-0.8-0.1-1.2c7.5-5.9,16-10.5,23.4-16.6
			c-7.8,4.5-15.6,9.6-23.1,14.9c0.1-0.4,0.3-0.8,0.5-1.2l0,0c7.3-9.2,16.3-16.9,24.8-24.9c-8.2,5.8-15.7,12.9-22.5,20.5
			c2.2-3.9,5.2-7.9,7.8-11.2C165.4,61.5,168.3,57.9,172.4,54z M196.9,88.9c-0.9-0.2-1.7-0.6-2.5-0.9c-2.9-1-6.3-0.6-9.4-0.4
			c-3.4,0.2-6.8,0.6-10.1,1.2c-5,0.9-10.1,1.1-15.1,2.3c6.2,0.7,12.8-0.3,18.8,0.4c-7.1,0.7-14.3,1.4-21.4,0.3
			c-1.1,0.3-2.1,0.6-3.2,0.9c6.1,2.3,14.8,2.7,20.8,3.5c-7.5,0.6-15.5-0.2-22.7-2.9c-0.3,0.1-0.7,0.3-0.9,0.5
			c6.1,3.5,13.4,5.1,20.3,6.5c-7,0.1-14-2.1-20.3-5.3v0.1c0.3,0.8,1.2,1.6,1.7,2.1c6.5,3.5,13.6,6.9,20,9.9
			c-6.5-1.5-12.2-4.8-18.1-7.7c0.5,0.6,1,1.2,1.5,1.7c3.1,3.6,6.4,7,9.2,10.9c0.5,0.7,1,1.4,1.1,2.3c0.1,0.4,0,0.9,0.2,1.3
			c0.5,1,2.4,0.9,3.3,0.6c1.4-0.3,2.5-1.4,3.8-2c2.4-1.2,5.8,0.9,7.8-1c0.2-0.2,0.3-0.4,0.5-0.6c0.9-1.6,4.3-5.5,2.1-7.3
			c-2-1.6-4.1-2-6.6-2.5l3.5-0.3c0.8,0.2,1.6,0.4,2.3,0.6c0.9,0.2,2.1,0.8,3,0.5c0.3-0.1,0.6-0.3,0.9-0.6c0.8-0.6,1.6-1,2.4-1.4
			c1-0.5,2-0.8,2.8-1.3c2.7-1.7,4.6-5.3,5.7-8.2C199,90.3,198.7,89.3,196.9,88.9z M162.2,109.3c-1.7-2.1-3.5-4.2-5.4-6.1
			c-2-2.2-4.2-4.2-6.6-6.1c2.7,3.8,5.3,7.8,6.4,12.2c-2.9-5-5.6-9.8-9.3-14.3c-0.2-0.1-0.4-0.3-0.6-0.4c-0.1-0.1-0.2-0.1-0.2-0.2
			c1.4,4.9,3.1,9.9,3.3,14.9c-1.8-5.2-3-10.6-4.7-15.8c-0.7-0.5-1.4-0.9-2.1-1.3c0.2,4.3,1,8.8,0.5,13c-1.1-4.5-1.2-9.1-1.7-13.7
			c-1.1-0.7-2.3-1.3-3.4-1.9c-1.9,3.8-2.3,8.1-3.2,12.1c-0.5-4.3,0.6-8.6,2.3-12.5c-0.6-0.3-1.3-0.6-2-0.9c-1.8,2.3-3.3,5-5.4,7
			c0.8-2.8,2.6-5.1,4.3-7.4c-0.8-0.3-1.6-0.6-2.4-0.8c-1.2-0.3-2.3-0.6-3.4-0.8c-4.6,1.1-8.5,3.8-12.3,6.1c2.5-3.2,6.1-5.1,9.9-6.5
			c-2.7-0.3-5.3-0.5-7.9,0.2c-4.8,1.2-8.7,3.1-12.9,6.4c-0.3,0.2-0.6,0.3-0.8,0.6c-1.2,1.3-1.6,4.5-0.8,6c0.5,0.8,1.2,1.4,1.8,2.1
			c4.3,4,9.3,9,15.3,10c1.9,0.3,3.8,0.2,5.7,0.1c0.3,0,0.6-0.1,0.9-0.2c0.4-0.3,0.5-0.8,0.5-1.3c0.1-1.8-0.3-3.7-0.3-5.5
			s0.2-3.8,1.3-5.3c-0.6,0.7-0.3,3.2-0.3,4c0.1,1.4,0.2,2.8,0.6,4.2c0.6,2.7,1.8,5.3,3.5,7.4c0.5,0.6,1,1.2,1.7,1.6
			c0.9,0.5,1.7,0.3,2.7,0.5c0.9,0.1,1.7,0.5,2.4,0.8c1.9,0.8,3.6,1.9,5.5,2.7c3.8,1.7,8.7,0.9,12.7,0.4c2-0.2,4.3-0.3,6.1-1.2
			c1.8-0.9,2.5-3.9,1.8-5.6C164.8,112,163.3,110.7,162.2,109.3z M104.4,80.9c1.1,2.1,2.4,3.6,4.1,5.3c1.2,1.1,4.2-0.2,5.4-0.6
			c4.3-1.4,8.3-1.4,12.7-0.9c2.4,0.3,5.3,0.9,7.8,0.2c-5.7-2.9-11.8-4.7-18-5.7c6.9-0.5,13.3,2.3,19.4,5.1c0.5-0.3,1-0.8,1.4-1.2
			c-7.7-5-16-9.4-24.4-13.1c9.2,2.4,17.1,7.4,25.1,12.3c0.3-0.3,0.6-0.6,0.9-1c0.1-0.1,0.1-0.1,0.2-0.2
			c-5.1-5.4-10.9-10.6-15.3-16.5c5.7,4.8,10.8,10.4,16.1,15.6c0.3-0.3,0.6-0.6,0.9-1c-3.2-7.6-7.3-14.3-11.7-21.1
			c4.2,4.9,8.4,10.6,10.7,16.6c0.5,1.1,1,2.2,1.6,3.2l0,0c-1.3-8.1-4-15.9-8.4-22.9c-1.5-2.6-3.7-5.1-5-7.7
			c3.8,4.8,7.9,9.5,10.1,15.3c1.7,4,2.9,8.2,3.8,12.5c0.2-1.8,0.3-3.8,0.1-5.2c-0.3-3.1-0.8-6.2-1.4-9.2c-1.4-6.4-4-12.4-9-16.9
			c-1.4-1.3-3.8-4-5.8-4.5c-1.6-0.3-4.2,0.3-5.6,0.8c-3.9,1.2-7.4,3.6-10.3,6.5c-0.2,0.2,5.9,9.2,6.5,10c0.1,0.1,5,6.2,5,6.2
			c-1.1-1.3-3.2-2.2-4.5-3.4c-1.7-1.6-3.1-3.5-4.3-5.5c-0.1-0.1-2.1-3.9-2.1-3.9l-1.1,2.7c-1.8,0.2-2.6,0.3-3.9,1.7
			c-1.1,1.1-3.1,3-3.5,4.4l-1.5,5.7v7.2l1.8,5.4C102.4,78.2,103.9,80,104.4,80.9z M159.3,39.5c0.4,0.9-1.1,4.6-1.3,5.5
			c-0.4,1.7-0.9,3.5-1.3,5.2c-0.9,3.5-1.8,7.7-3.8,10.9c0.5-2.4,1.2-4.7,1.7-7c0.8-3.2,1.4-6.5,1.9-9.8c0.3-1.7,2-6.5,0.1-7.8
			c-0.8-0.5-1.8-0.6-2.8-0.5c-1.8,0.1-3.5,0.1-5.3,0.1l-1.8-1.1c-3-1.5-6.1-2.8-9.5-2.5c-2,0.1-4,0.8-5.7,1.8
			c-2.4,1.6-2.4,2.6-2.4,5.3c0,0.4,2.2,2,2.6,2.4c0.9,0.9,1.8,2,2.7,3c1.7,2.1,3.2,4.4,4.4,6.8c1.9,3.9,2.9,8.3,3.6,12.5
			c0.4,2.8,0.5,5.4,0.5,8.2c0,1,0.1,2.9,0.5,4.6c2.3-11.4,1.9-23.3-1.1-34.3c4.8,11.4,3.9,24.1,1.6,36.1c0,0,0.1,0,0,0
			c0.2,0.4,0.3,0.8,0.6,1c3.8-9.2,5.5-18.9,6.7-28.5c0.5,10-2.3,19.9-5.7,29.2c0.4,0.1,0.9,0.1,1.3,0c2.8-8.1,6.3-16.3,11.2-23.3
			c-3,6.7-7.7,15.8-9.9,23c0.3-0.1,0.8-0.1,1.1-0.2c3.9-10.1,9.7-19.9,17.3-27.4c-6.3,8.3-12.5,17.1-16,27.1c1.2-0.3,2.3-0.9,3-2.4
			c1.3-2.5,3.9-6.1,5.4-8.5c2.2-3.3,4-6.6,6.6-9.6c1.3-1.5,2.7-2.9,4.1-4.4c1-1.1,1.9-2.4,3.2-3.2c1.7-1,3.9-1,5.2-2.8
			c-0.8-2.3-2.7-4-4.8-5c-1.6-0.7-3.3-0.5-4.9-0.6C165.1,43,160.7,42.4,159.3,39.5z"/>
		<path class="st2" d="M145.1,90.5c2.3,0,4.2-1.7,4.2-3.8s-1.9-3.8-4.2-3.8c-2.3,0-4.2,1.7-4.2,3.8
			C140.9,88.8,142.7,90.5,145.1,90.5z"/>
		<path class="st3" d="M112.3,149.7c1.1-0.4,2.3-0.7,3.5-0.9c-0.3,0.1-2-2.1-2.3-2.5c-0.8-0.9-1.4-1.9-2-3c-0.4-0.9-0.9-1.7-1-2.7
			c-0.2-0.8-0.1-1.6,0.4-2.3c1.5-2.1,5.6-1.4,7.6-0.8c0.9,0.3,1.8,0.6,2.6,1c0.2,0.1,1.6,1,1.7,1.2l-0.9-10.3c0-0.3-2.1-1.3-2.5-1.4
			c-3.3-1.4-7.2-2-10.8-2.2c-0.7-0.1-1.4-0.1-2.1-0.2c-0.7-0.2-1.3-0.5-2-0.8c-1.9-0.8-4.2-2.1-4.8-4.2c-0.3-0.9,0.1-2-0.2-2.9
			c-0.1-0.3-0.2-0.6-0.4-0.8c-0.5-0.5-1.9-0.4-2.4-0.1c-0.1,0.1-0.2,0.2-0.3,0.3c-1.2,1.2-2,2.7-2.8,4.2c-0.6,1.2,0.3,2.9,0.9,4
			c1.8,3.2,4.2,6.1,6.6,8.8c1.5,1.7,3.5,4.7,5.7,5.6c-1.7-0.8-3.5-1.3-4.8-2.5c-2.2-2.1-3.9-4.2-5.7-6.6c0,0-1.3-2.3-1.3-2.4
			c0.3,0.5-0.6,2.3-0.9,2.8c-0.9,1.3-2.3,2-3.7,2.5c-1,0.4-1.8,1.2-2.3,2.1c-0.3,0.7-0.5,1.5-0.4,2.3c0,0.1,0.1,0.3,0.2,0.3
			s0.2,0.1,0.4,0.1c2.4,0.1,5,0.5,7.1,1.7c5.3,2.9,7.6,9.2,13.6,11.1C109.2,151.6,111.7,149.9,112.3,149.7z"/>
		<path class="st3" d="M130,141.5c0.1-0.5,0.1-1,0.1-1.6c0-4.4-2.8-9.2-6.5-12.2l-0.2,6l0.3,3.5l0.8,3v2.3c0,0-0.2,0.9-0.6,0.4
			c-1.3-1.9-3.5-3-5.7-3.4c-1.2-0.2-5.9-0.7-5.8,1.1c0.3,3.9,4.3,7.1,7.2,9.2c-0.3-0.2-1.6-0.1-2.1-0.1c-2.3-0.1-4.4,1.2-6.3,2.3
			c-0.9,0.5-1.8,1-2.6,1.6c-0.2,0.1-2.1,2.4-1.8,2.4c5.2,1.3,12.2,1.4,16.6-2C127.3,151.1,129.6,146.3,130,141.5z"/>
		<g>
			<path class="st3" d="M167.1,174.7c-0.1,0-2.3,5.7-2.5,6.2c-2.8,5.9-8.8,9.2-13,14.1c-2.3,2.6-3.8,5.5-5.2,8.6v3.9
				c0,0,0.2,2.4-2.1,2.4c-2.4,0-2.4-1.8-2.4-2.4c0-7.5,0.3-15.4-0.1-23c-0.3-7.1-0.7-16.2-4.2-22.6c-1.4-2.7-3.9-5.1-6.4-6.9
				c-0.6-0.4-3.8-2.7-4.2-2.6c0.5-0.1,3.1-3.7,3.1-3.7l3.1,2.1c2.4,1.7,4.3,3.6,6.2,5.9l2.5,3.1v-39.1c0,0,1.2,0.8,2.4,1.2
				c1.2,0.4,2.4,0.2,2.4,0.2l-0.2,68.3c0.5-0.3,0.9-0.5,1-0.5c3.2-1.8,6.2-3,8.9-5.6c3.5-3.4,5.5-7.4,6.3-12.1l2.4,1.6
				C165.1,174,167,174.7,167.1,174.7z"/>
		</g>
		<path class="st3" d="M162.2,151.2c-0.6,0.6-1,1.4-1.5,2.1c-0.1,0.2-1.6,2.8-1.6,2.8c0.2,0.1,0.6,0.3,0.9,0.6
			c0.6,0.6,1.2,1.2,1.8,1.8c0.9,1.1,1.4,2.4,1.9,3.7c0.1,0.2,0.1,0.3,0.1,0.5c0.1-0.2,0.3-0.5,0.4-0.7c0.2-0.3,0.3-0.5,0.5-0.8
			c0.3-0.5,0.7-1.1,1-1.6c0.8-1.2,2.7-2.6,4-3.2c1.5-0.6,2.1-0.2,3.1,1.2c0.7,1,0.6,2.5,0.5,3.8c0,1.5-0.2,2.9-0.3,4.4
			c0-0.1,1.3-0.5,1.4-0.5c0.5-0.2,1-0.3,1.5-0.4c1.3-0.3,2.6-0.8,4-0.8c0,0,0.1-2.3,0.1-3.2c0.1-2.9,0.1-6.3-0.8-9.1
			c-0.3-1.1-1.4-3.2-2.5-3.6c-1.6-0.5-3.4-0.3-4.9,0.5c-0.8,0.4-1.4,0.9-2.1,1.4c-0.6,0.5-1.3,1-1.9,1.7c-0.3,0.3-0.5,0.6-0.8,0.9
			c-0.5,0.7-1,1.4-1.6,2.1c0.3-0.8,0.8-1.6,1.2-2.3c0.5-0.8,0.9-1.6,1.4-2.4c0.5-0.6,1.1-1.3,1.7-1.8c0.5-0.4,1-0.8,1.4-1.2
			c0.1-0.1,0.3-0.3,0.4-0.3c-2.9,0.3-5.6,1.3-8,3C163.2,150.2,162.7,150.7,162.2,151.2z"/>
		<path class="st3" d="M171,168.4l1.1-4.1c0.4-1.7,0.8-4-0.2-5.5c-1.4-2.3-4.6,1.7-5.3,2.8c-0.9,1.4-1.6,3-2.5,4.4
			c-0.3-1.3-0.8-2.9-1.6-4.2c-0.8-1.3-1.8-2.4-3-3.3c-0.4-0.4-3.1-2.1-3.1-2.5c0,4.6,0.8,11,4.7,13.9c1.8,1.3,3.9,2.5,6.1,3.2
			c3.5,1,7.6,0,10.6-2c1.3-0.9,2.4-1.9,3.3-3.1c0.3-0.5,1.6-2.3,2-2.8c-3.2,0.3-6.3,1-9.3,2.1C173.3,167.3,171.1,168,171,168.4z"/>
		<polygon class="st2" points="169.9,200.5 150.3,200.5 148.8,202.8 172.2,202.8 172.2,175.2 169.9,175.5 		"/>
		<polygon class="st2" points="118.7,124.9 121,126.2 121,113.5 118.7,112.9 		"/>
		<polygon class="st2" points="121,157.5 118.7,158.3 118.7,202.8 139.5,202.8 139.5,200.5 121,200.5 		"/>
		<path class="st2" d="M172.2,118c-0.6,0.2-1.3,0.5-1.4,0.5c-0.1,0-0.5,0.3-0.9,0.6v25.3l2.3,1V118z"/>
		<polygon class="st2" points="121,36.9 121,36.8 121,23.9 169.9,23.9 169.9,40.6 172.2,40.5 172.2,21.6 118.7,21.6 118.7,38 
			118.7,38 		"/>
	</g>
	<text transform="matrix(1 0 0 1 66.8999 266.3603)" class="st4 st5 st6">一般社団法人 立葵</text>
	<text transform="matrix(1 0 0 1 68.3613 247.7632)" class="st4 st7 st8">Tachi-Aoi</text>
</g>
</svg>
